<?xml version="1.0" encoding="UTF-8" standalone="no"?>
<!DOCTYPE svg PUBLIC "-//W3C//DTD SVG 1.1//EN"
 "http://www.w3.org/Graphics/SVG/1.1/DTD/svg11.dtd">
<!-- Generated by graphviz version 2.40.1 (20161225.0304)
 -->
<!-- Title: Configuration Pages: 1 -->
<svg width="4747pt" height="694pt"
 viewBox="0.00 0.00 4747.00 694.26" xmlns="http://www.w3.org/2000/svg" xmlns:xlink="http://www.w3.org/1999/xlink">
<g id="graph0" class="graph" transform="scale(1 1) rotate(0) translate(4 690.2639)">
<title>Configuration</title>
<polygon fill="#ffffff" stroke="transparent" points="-4,4 -4,-690.2639 4743,-690.2639 4743,4 -4,4"/>
<g id="clust1" class="cluster">
<title>cluster_c4_large_5</title>
<polygon fill="none" stroke="#000000" points="3307,-319.6506 3307,-442.6506 3635,-442.6506 3635,-319.6506 3307,-319.6506"/>
<text text-anchor="middle" x="3471" y="-427.4506" font-family="Times,serif" font-size="14.00" fill="#000000">c4_large_5</text>
</g>
<g id="clust2" class="cluster">
<title>cluster_c4_2xlarge_0</title>
<polygon fill="none" stroke="#000000" points="159,-22.6506 159,-219.6506 405,-219.6506 405,-22.6506 159,-22.6506"/>
<text text-anchor="middle" x="282" y="-204.4506" font-family="Times,serif" font-size="14.00" fill="#000000">c4_2xlarge_0</text>
</g>
<g id="clust3" class="cluster">
<title>cluster_c4_xlarge_0</title>
<polygon fill="none" stroke="#000000" points="3675,-257.6506 3675,-484.6506 4043,-484.6506 4043,-257.6506 3675,-257.6506"/>
<text text-anchor="middle" x="3859" y="-469.4506" font-family="Times,serif" font-size="14.00" fill="#000000">c4_xlarge_0</text>
</g>
<g id="clust4" class="cluster">
<title>cluster_c4_large_2</title>
<polygon fill="none" stroke="#000000" points="1874,-341.6506 1874,-464.6506 2194,-464.6506 2194,-341.6506 1874,-341.6506"/>
<text text-anchor="middle" x="2034" y="-449.4506" font-family="Times,serif" font-size="14.00" fill="#000000">c4_large_2</text>
</g>
<g id="clust5" class="cluster">
<title>cluster_c4_2xlarge_4</title>
<polygon fill="none" stroke="#000000" points="8,-48.6506 8,-143.6506 139,-143.6506 139,-48.6506 8,-48.6506"/>
<text text-anchor="middle" x="73.5" y="-128.4506" font-family="Times,serif" font-size="14.00" fill="#000000">c4_2xlarge_4</text>
</g>
<g id="clust6" class="cluster">
<title>cluster_c4_large_6</title>
<polygon fill="none" stroke="#000000" points="1143,-442.6506 1143,-565.6506 1480,-565.6506 1480,-442.6506 1143,-442.6506"/>
<text text-anchor="middle" x="1311.5" y="-550.4506" font-family="Times,serif" font-size="14.00" fill="#000000">c4_large_6</text>
</g>
<g id="clust7" class="cluster">
<title>cluster_c4_2xlarge_1</title>
<polygon fill="none" stroke="#000000" points="1500,-298.6506 1500,-537.6506 1839,-537.6506 1839,-298.6506 1500,-298.6506"/>
<text text-anchor="middle" x="1669.5" y="-522.4506" font-family="Times,serif" font-size="14.00" fill="#000000">c4_2xlarge_1</text>
</g>
<g id="clust8" class="cluster">
<title>cluster_c4_xlarge_3</title>
<polygon fill="none" stroke="#000000" points="1158.5,-150.6506 1158.5,-273.6506 1464.5,-273.6506 1464.5,-150.6506 1158.5,-150.6506"/>
<text text-anchor="middle" x="1311.5" y="-258.4506" font-family="Times,serif" font-size="14.00" fill="#000000">c4_xlarge_3</text>
</g>
<g id="clust9" class="cluster">
<title>cluster_c4_large_3</title>
<polygon fill="none" stroke="#000000" points="425,-369.6506 425,-492.6506 764,-492.6506 764,-369.6506 425,-369.6506"/>
<text text-anchor="middle" x="594.5" y="-477.4506" font-family="Times,serif" font-size="14.00" fill="#000000">c4_large_3</text>
</g>
<g id="clust10" class="cluster">
<title>cluster_c4_large_8</title>
<polygon fill="none" stroke="#000000" points="2599,-391.6506 2599,-514.6506 2908,-514.6506 2908,-391.6506 2599,-391.6506"/>
<text text-anchor="middle" x="2753.5" y="-499.4506" font-family="Times,serif" font-size="14.00" fill="#000000">c4_large_8</text>
</g>
<g id="clust11" class="cluster">
<title>cluster_c4_large_7</title>
<polygon fill="none" stroke="#000000" points="4063,-390.6506 4063,-513.6506 4387,-513.6506 4387,-390.6506 4063,-390.6506"/>
<text text-anchor="middle" x="4225" y="-498.4506" font-family="Times,serif" font-size="14.00" fill="#000000">c4_large_7</text>
</g>
<g id="clust12" class="cluster">
<title>cluster_c4_xlarge_2</title>
<polygon fill="none" stroke="#000000" points="2928,-418.6506 2928,-642.6506 3267,-642.6506 3267,-418.6506 2928,-418.6506"/>
<text text-anchor="middle" x="3097.5" y="-627.4506" font-family="Times,serif" font-size="14.00" fill="#000000">c4_xlarge_2</text>
</g>
<g id="clust13" class="cluster">
<title>cluster_c4_large_0</title>
<polygon fill="none" stroke="#000000" points="1151,-281.6506 1151,-404.6506 1472,-404.6506 1472,-281.6506 1151,-281.6506"/>
<text text-anchor="middle" x="1311.5" y="-389.4506" font-family="Times,serif" font-size="14.00" fill="#000000">c4_large_0</text>
</g>
<g id="clust14" class="cluster">
<title>cluster_c4_2xlarge_2</title>
<polygon fill="none" stroke="#000000" points="784,-179.6506 784,-376.6506 1123,-376.6506 1123,-179.6506 784,-179.6506"/>
<text text-anchor="middle" x="953.5" y="-361.4506" font-family="Times,serif" font-size="14.00" fill="#000000">c4_2xlarge_2</text>
</g>
<g id="clust15" class="cluster">
<title>cluster_c4_large_4</title>
<polygon fill="none" stroke="#000000" points="3287,-450.6506 3287,-573.6506 3655,-573.6506 3655,-450.6506 3287,-450.6506"/>
<text text-anchor="middle" x="3471" y="-558.4506" font-family="Times,serif" font-size="14.00" fill="#000000">c4_large_4</text>
</g>
<g id="clust16" class="cluster">
<title>cluster_c4_large_9</title>
<polygon fill="none" stroke="#000000" points="2600.5,-249.6506 2600.5,-372.6506 2906.5,-372.6506 2906.5,-249.6506 2600.5,-249.6506"/>
<text text-anchor="middle" x="2753.5" y="-357.4506" font-family="Times,serif" font-size="14.00" fill="#000000">c4_large_9</text>
</g>
<g id="clust17" class="cluster">
<title>cluster_c4_large_1</title>
<polygon fill="none" stroke="#000000" points="1859,-22.6506 1859,-145.6506 2209,-145.6506 2209,-22.6506 1859,-22.6506"/>
<text text-anchor="middle" x="2034" y="-130.4506" font-family="Times,serif" font-size="14.00" fill="#000000">c4_large_1</text>
</g>
<g id="clust18" class="cluster">
<title>cluster_c4_2xlarge_3</title>
<polygon fill="none" stroke="#000000" points="2229,-220.6506 2229,-485.6506 2579,-485.6506 2579,-220.6506 2229,-220.6506"/>
<text text-anchor="middle" x="2404" y="-470.4506" font-family="Times,serif" font-size="14.00" fill="#000000">c4_2xlarge_3</text>
</g>
<g id="clust19" class="cluster">
<title>cluster_c4_xlarge_1</title>
<polygon fill="none" stroke="#000000" points="4407,-418.6506 4407,-513.6506 4731,-513.6506 4731,-418.6506 4407,-418.6506"/>
<text text-anchor="middle" x="4569" y="-498.4506" font-family="Times,serif" font-size="14.00" fill="#000000">c4_xlarge_1</text>
</g>
<!-- comp_10 -->
<g id="node1" class="node">
<title>comp_10</title>
<polygon fill="none" stroke="#000000" points="3627,-411.1506 3315,-411.1506 3315,-328.1506 3627,-328.1506 3627,-411.1506"/>
<polygon fill="none" stroke="#000000" points="3323,-385.6506 3323,-406.6506 3619,-406.6506 3619,-385.6506 3323,-385.6506"/>
<text text-anchor="start" x="3326" y="-392.4506" font-family="Times,serif" font-size="14.00" fill="#000000">default___HeaderAnalyser_LoadBalancer</text>
<polygon fill="none" stroke="#000000" points="3323,-358.6506 3323,-385.6506 3619,-385.6506 3619,-358.6506 3323,-358.6506"/>
<polygon fill="#00ff00" stroke="transparent" points="3326,-361.6506 3326,-382.6506 3616,-382.6506 3616,-361.6506 3326,-361.6506"/>
<polygon fill="none" stroke="#000000" points="3326,-361.6506 3326,-382.6506 3616,-382.6506 3616,-361.6506 3326,-361.6506"/>
<text text-anchor="start" x="3329" y="-368.4506" font-family="Times,serif" font-size="14.00" fill="#000000">HeaderAnalyser_LoadBalancerInterface</text>
<polygon fill="none" stroke="#000000" points="3323,-331.6506 3323,-358.6506 3619,-358.6506 3619,-331.6506 3323,-331.6506"/>
<polygon fill="#ff0000" stroke="transparent" points="3326,-334.6506 3326,-355.6506 3616,-355.6506 3616,-334.6506 3326,-334.6506"/>
<polygon fill="none" stroke="#000000" points="3326,-334.6506 3326,-355.6506 3616,-355.6506 3616,-334.6506 3326,-334.6506"/>
<text text-anchor="start" x="3381" y="-341.4506" font-family="Times,serif" font-size="14.00" fill="#000000">HeaderAnalyserInterface</text>
</g>
<!-- comp_2 -->
<g id="node4" class="node">
<title>comp_2</title>
<polygon fill="none" stroke="#000000" points="4035,-453.6506 3683,-453.6506 3683,-265.6506 4035,-265.6506 4035,-453.6506"/>
<polygon fill="none" stroke="#000000" points="3691,-428.6506 3691,-449.6506 4027,-449.6506 4027,-428.6506 3691,-428.6506"/>
<text text-anchor="start" x="3768.5" y="-435.4506" font-family="Times,serif" font-size="14.00" fill="#000000">default___MessageParser</text>
<polygon fill="none" stroke="#000000" points="3691,-401.6506 3691,-428.6506 4027,-428.6506 4027,-401.6506 3691,-401.6506"/>
<polygon fill="#00ff00" stroke="transparent" points="3694,-404.6506 3694,-425.6506 4024,-425.6506 4024,-404.6506 3694,-404.6506"/>
<polygon fill="none" stroke="#000000" points="3694,-404.6506 3694,-425.6506 4024,-425.6506 4024,-404.6506 3694,-404.6506"/>
<text text-anchor="start" x="3771.5" y="-411.4506" font-family="Times,serif" font-size="14.00" fill="#000000">MessageParserInterface</text>
<polygon fill="none" stroke="#000000" points="3691,-269.6506 3691,-401.6506 4027,-401.6506 4027,-269.6506 3691,-269.6506"/>
<polygon fill="#ff0000" stroke="transparent" points="3694,-272.6506 3694,-398.6506 4024,-398.6506 4024,-272.6506 3694,-272.6506"/>
<polygon fill="none" stroke="#000000" points="3694,-377.6506 3694,-398.6506 4024,-398.6506 4024,-377.6506 3694,-377.6506"/>
<text text-anchor="start" x="3815.5" y="-384.4506" font-family="Times,serif" font-size="14.00" fill="#000000">DBInterface</text>
<polygon fill="none" stroke="#000000" points="3694,-356.6506 3694,-377.6506 4024,-377.6506 4024,-356.6506 3694,-356.6506"/>
<text text-anchor="start" x="3717" y="-363.4506" font-family="Times,serif" font-size="14.00" fill="#000000">HeaderAnalyser_LoadBalancerInterface</text>
<polygon fill="none" stroke="#000000" points="3694,-335.6506 3694,-356.6506 4024,-356.6506 4024,-335.6506 3694,-335.6506"/>
<text text-anchor="start" x="3711.5" y="-342.4506" font-family="Times,serif" font-size="14.00" fill="#000000">MessageAnalyser_LoadBalancerInterface</text>
<polygon fill="none" stroke="#000000" points="3694,-314.6506 3694,-335.6506 4024,-335.6506 4024,-314.6506 3694,-314.6506"/>
<text text-anchor="start" x="3697" y="-321.4506" font-family="Times,serif" font-size="14.00" fill="#000000">AttachmentsManager_LoadBalancerInterface</text>
<polygon fill="none" stroke="#000000" points="3694,-293.6506 3694,-314.6506 4024,-314.6506 4024,-293.6506 3694,-293.6506"/>
<text text-anchor="start" x="3728" y="-300.4506" font-family="Times,serif" font-size="14.00" fill="#000000">TextAnalyser_LoadBalancerInterface</text>
<polygon fill="none" stroke="#000000" points="3694,-272.6506 3694,-293.6506 4024,-293.6506 4024,-272.6506 3694,-272.6506"/>
<text text-anchor="start" x="3728" y="-279.4506" font-family="Times,serif" font-size="14.00" fill="#000000">LinkAnalyser_LoadBalancerInterface</text>
</g>
<!-- comp_10&#45;&gt;comp_2 -->
<g id="edge14" class="edge">
<title>comp_10:prov_HeaderAnalyser_LoadBalancerInterface&#45;&gt;comp_2:req_HeaderAnalyser_LoadBalancerInterface</title>
<path fill="none" stroke="#000000" d="M3326,-372.6506C3326,-372.6506 3627,-411.1506 3627,-411.1506 3657.4516,-402.1322 3658.6265,-374.4402 3683.9487,-368.6992"/>
<polygon fill="#000000" stroke="#000000" points="3684.4172,-372.1694 3694,-367.6506 3683.6908,-365.2072 3684.4172,-372.1694"/>
</g>
<!-- comp_18 -->
<g id="node2" class="node">
<title>comp_18</title>
<polygon fill="none" stroke="#000000" points="397,-86.6506 167,-86.6506 167,-30.6506 397,-30.6506 397,-86.6506"/>
<polygon fill="none" stroke="#000000" points="175,-61.6506 175,-82.6506 389,-82.6506 389,-61.6506 175,-61.6506"/>
<text text-anchor="start" x="178" y="-68.4506" font-family="Times,serif" font-size="14.00" fill="#000000">default___SentimentAnalyser</text>
<polygon fill="none" stroke="#000000" points="175,-34.6506 175,-61.6506 389,-61.6506 389,-34.6506 175,-34.6506"/>
<polygon fill="#00ff00" stroke="transparent" points="178,-37.6506 178,-58.6506 386,-58.6506 386,-37.6506 178,-37.6506"/>
<polygon fill="none" stroke="#000000" points="178,-37.6506 178,-58.6506 386,-58.6506 386,-37.6506 178,-37.6506"/>
<text text-anchor="start" x="181" y="-44.4506" font-family="Times,serif" font-size="14.00" fill="#000000">SentimentAnalyserInterface</text>
</g>
<!-- comp_6 -->
<g id="node21" class="node">
<title>comp_6</title>
<polygon fill="none" stroke="#000000" points="2201,-114.1506 1867,-114.1506 1867,-31.1506 2201,-31.1506 2201,-114.1506"/>
<polygon fill="none" stroke="#000000" points="1875,-88.6506 1875,-109.6506 2193,-109.6506 2193,-88.6506 1875,-88.6506"/>
<text text-anchor="start" x="1878" y="-95.4506" font-family="Times,serif" font-size="14.00" fill="#000000">default___SentimentAnalyser_LoadBalancer</text>
<polygon fill="none" stroke="#000000" points="1875,-61.6506 1875,-88.6506 2193,-88.6506 2193,-61.6506 1875,-61.6506"/>
<polygon fill="#00ff00" stroke="transparent" points="1878,-64.6506 1878,-85.6506 2190,-85.6506 2190,-64.6506 1878,-64.6506"/>
<polygon fill="none" stroke="#000000" points="1878,-64.6506 1878,-85.6506 2190,-85.6506 2190,-64.6506 1878,-64.6506"/>
<text text-anchor="start" x="1881" y="-71.4506" font-family="Times,serif" font-size="14.00" fill="#000000">SentimentAnalyser_LoadBalancerInterface</text>
<polygon fill="none" stroke="#000000" points="1875,-34.6506 1875,-61.6506 2193,-61.6506 2193,-34.6506 1875,-34.6506"/>
<polygon fill="#ff0000" stroke="transparent" points="1878,-37.6506 1878,-58.6506 2190,-58.6506 2190,-37.6506 1878,-37.6506"/>
<polygon fill="none" stroke="#000000" points="1878,-37.6506 1878,-58.6506 2190,-58.6506 2190,-37.6506 1878,-37.6506"/>
<text text-anchor="start" x="1933" y="-44.4506" font-family="Times,serif" font-size="14.00" fill="#000000">SentimentAnalyserInterface</text>
</g>
<!-- comp_18&#45;&gt;comp_6 -->
<g id="edge22" class="edge">
<title>comp_18:prov_SentimentAnalyserInterface&#45;&gt;comp_6:req_SentimentAnalyserInterface</title>
<path fill="none" stroke="#000000" d="M282,-37.6506C282,-12.095 371.4455,-37.421 397,-37.6506 644.3633,-39.8729 706.1267,-47.6506 953.5,-47.6506 953.5,-47.6506 953.5,-47.6506 1311.5,-47.6506 1559.8355,-47.6506 1624.4658,-47.6506 1867.7781,-47.6506"/>
<polygon fill="#000000" stroke="#000000" points="1868,-51.1507 1878,-47.6506 1868,-44.1507 1868,-51.1507"/>
</g>
<!-- comp_19 -->
<g id="node3" class="node">
<title>comp_19</title>
<polygon fill="none" stroke="#000000" points="391,-188.1506 173,-188.1506 173,-105.1506 391,-105.1506 391,-188.1506"/>
<polygon fill="none" stroke="#000000" points="181,-162.6506 181,-183.6506 383,-183.6506 383,-162.6506 181,-162.6506"/>
<text text-anchor="start" x="184" y="-169.4506" font-family="Times,serif" font-size="14.00" fill="#000000">default___MessageAnalyser</text>
<polygon fill="none" stroke="#000000" points="181,-135.6506 181,-162.6506 383,-162.6506 383,-135.6506 181,-135.6506"/>
<polygon fill="#00ff00" stroke="transparent" points="184,-138.6506 184,-159.6506 380,-159.6506 380,-138.6506 184,-138.6506"/>
<polygon fill="none" stroke="#000000" points="184,-138.6506 184,-159.6506 380,-159.6506 380,-138.6506 184,-138.6506"/>
<text text-anchor="start" x="187" y="-145.4506" font-family="Times,serif" font-size="14.00" fill="#000000">MessageAnalyserInterface</text>
<polygon fill="none" stroke="#000000" points="181,-108.6506 181,-135.6506 383,-135.6506 383,-108.6506 181,-108.6506"/>
<polygon fill="#ff0000" stroke="transparent" points="184,-111.6506 184,-132.6506 380,-132.6506 380,-111.6506 184,-111.6506"/>
<polygon fill="none" stroke="#000000" points="184,-111.6506 184,-132.6506 380,-132.6506 380,-111.6506 184,-111.6506"/>
<text text-anchor="start" x="238.5" y="-118.4506" font-family="Times,serif" font-size="14.00" fill="#000000">DBInterface</text>
</g>
<!-- comp_8 -->
<g id="node11" class="node">
<title>comp_8</title>
<polygon fill="none" stroke="#000000" points="756,-461.1506 433,-461.1506 433,-378.1506 756,-378.1506 756,-461.1506"/>
<polygon fill="none" stroke="#000000" points="441.5,-435.6506 441.5,-456.6506 748.5,-456.6506 748.5,-435.6506 441.5,-435.6506"/>
<text text-anchor="start" x="444.5" y="-442.4506" font-family="Times,serif" font-size="14.00" fill="#000000">default___MessageAnalyser_LoadBalancer</text>
<polygon fill="none" stroke="#000000" points="441.5,-408.6506 441.5,-435.6506 748.5,-435.6506 748.5,-408.6506 441.5,-408.6506"/>
<polygon fill="#00ff00" stroke="transparent" points="444.5,-411.6506 444.5,-432.6506 745.5,-432.6506 745.5,-411.6506 444.5,-411.6506"/>
<polygon fill="none" stroke="#000000" points="444.5,-411.6506 444.5,-432.6506 745.5,-432.6506 745.5,-411.6506 444.5,-411.6506"/>
<text text-anchor="start" x="447.5" y="-418.4506" font-family="Times,serif" font-size="14.00" fill="#000000">MessageAnalyser_LoadBalancerInterface</text>
<polygon fill="none" stroke="#000000" points="441.5,-381.6506 441.5,-408.6506 748.5,-408.6506 748.5,-381.6506 441.5,-381.6506"/>
<polygon fill="#ff0000" stroke="transparent" points="444.5,-384.6506 444.5,-405.6506 745.5,-405.6506 745.5,-384.6506 444.5,-384.6506"/>
<polygon fill="none" stroke="#000000" points="444.5,-384.6506 444.5,-405.6506 745.5,-405.6506 745.5,-384.6506 444.5,-384.6506"/>
<text text-anchor="start" x="500" y="-391.4506" font-family="Times,serif" font-size="14.00" fill="#000000">MessageAnalyserInterface</text>
</g>
<!-- comp_19&#45;&gt;comp_8 -->
<g id="edge23" class="edge">
<title>comp_19:prov_MessageAnalyserInterface&#45;&gt;comp_8:req_MessageAnalyserInterface</title>
<path fill="none" stroke="#000000" d="M184,-149.6506C107.6353,-149.6506 345.1982,-375.8838 434.3896,-393.5583"/>
<polygon fill="#000000" stroke="#000000" points="434.1819,-397.0561 444.5,-394.6506 434.9338,-390.0966 434.1819,-397.0561"/>
</g>
<!-- comp_12 -->
<g id="node13" class="node">
<title>comp_12</title>
<polygon fill="none" stroke="#000000" points="4379,-482.1506 4071,-482.1506 4071,-399.1506 4379,-399.1506 4379,-482.1506"/>
<polygon fill="none" stroke="#000000" points="4079,-456.6506 4079,-477.6506 4371,-477.6506 4371,-456.6506 4079,-456.6506"/>
<text text-anchor="start" x="4082" y="-463.4506" font-family="Times,serif" font-size="14.00" fill="#000000">default___MessageParser_LoadBalancer</text>
<polygon fill="none" stroke="#000000" points="4079,-429.6506 4079,-456.6506 4371,-456.6506 4371,-429.6506 4079,-429.6506"/>
<polygon fill="#00ff00" stroke="transparent" points="4082,-432.6506 4082,-453.6506 4368,-453.6506 4368,-432.6506 4082,-432.6506"/>
<polygon fill="none" stroke="#000000" points="4082,-432.6506 4082,-453.6506 4368,-453.6506 4368,-432.6506 4082,-432.6506"/>
<text text-anchor="start" x="4085" y="-439.4506" font-family="Times,serif" font-size="14.00" fill="#000000">MessageParser_LoadBalancerInterface</text>
<polygon fill="none" stroke="#000000" points="4079,-402.6506 4079,-429.6506 4371,-429.6506 4371,-402.6506 4079,-402.6506"/>
<polygon fill="#ff0000" stroke="transparent" points="4082,-405.6506 4082,-426.6506 4368,-426.6506 4368,-405.6506 4082,-405.6506"/>
<polygon fill="none" stroke="#000000" points="4082,-405.6506 4082,-426.6506 4368,-426.6506 4368,-405.6506 4082,-405.6506"/>
<text text-anchor="start" x="4137.5" y="-412.4506" font-family="Times,serif" font-size="14.00" fill="#000000">MessageParserInterface</text>
</g>
<!-- comp_2&#45;&gt;comp_12 -->
<g id="edge1" class="edge">
<title>comp_2:prov_MessageParserInterface&#45;&gt;comp_12:req_MessageParserInterface</title>
<path fill="none" stroke="#000000" d="M3694,-415.6506C3694,-415.6506 4035,-453.6506 4035,-453.6506 4056.5657,-446.0231 4056.0054,-423.8302 4071.9518,-417.4097"/>
<polygon fill="#000000" stroke="#000000" points="4072.7534,-420.8227 4082,-415.6506 4071.5462,-413.9275 4072.7534,-420.8227"/>
</g>
<!-- comp_9 -->
<g id="node5" class="node">
<title>comp_9</title>
<polygon fill="none" stroke="#000000" points="2186,-433.1506 1882,-433.1506 1882,-350.1506 2186,-350.1506 2186,-433.1506"/>
<polygon fill="none" stroke="#000000" points="1890,-407.6506 1890,-428.6506 2178,-428.6506 2178,-407.6506 1890,-407.6506"/>
<text text-anchor="start" x="1893" y="-414.4506" font-family="Times,serif" font-size="14.00" fill="#000000">default___ImageAnalyser_LoadBalancer</text>
<polygon fill="none" stroke="#000000" points="1890,-380.6506 1890,-407.6506 2178,-407.6506 2178,-380.6506 1890,-380.6506"/>
<polygon fill="#00ff00" stroke="transparent" points="1893,-383.6506 1893,-404.6506 2175,-404.6506 2175,-383.6506 1893,-383.6506"/>
<polygon fill="none" stroke="#000000" points="1893,-383.6506 1893,-404.6506 2175,-404.6506 2175,-383.6506 1893,-383.6506"/>
<text text-anchor="start" x="1896" y="-390.4506" font-family="Times,serif" font-size="14.00" fill="#000000">ImageAnalyser_LoadBalancerInterface</text>
<polygon fill="none" stroke="#000000" points="1890,-353.6506 1890,-380.6506 2178,-380.6506 2178,-353.6506 1890,-353.6506"/>
<polygon fill="#ff0000" stroke="transparent" points="1893,-356.6506 1893,-377.6506 2175,-377.6506 2175,-356.6506 1893,-356.6506"/>
<polygon fill="none" stroke="#000000" points="1893,-356.6506 1893,-377.6506 2175,-377.6506 2175,-356.6506 1893,-356.6506"/>
<text text-anchor="start" x="1948" y="-363.4506" font-family="Times,serif" font-size="14.00" fill="#000000">ImageAnalyserInterface</text>
</g>
<!-- comp_21 -->
<g id="node23" class="node">
<title>comp_21</title>
<polygon fill="none" stroke="#000000" points="2565.5,-454.6506 2242.5,-454.6506 2242.5,-350.6506 2565.5,-350.6506 2565.5,-454.6506"/>
<polygon fill="none" stroke="#000000" points="2251,-429.6506 2251,-450.6506 2558,-450.6506 2558,-429.6506 2251,-429.6506"/>
<text text-anchor="start" x="2321" y="-436.4506" font-family="Times,serif" font-size="14.00" fill="#000000">default___VirusScanner</text>
<polygon fill="none" stroke="#000000" points="2251,-402.6506 2251,-429.6506 2558,-429.6506 2558,-402.6506 2251,-402.6506"/>
<polygon fill="#00ff00" stroke="transparent" points="2254,-405.6506 2254,-426.6506 2555,-426.6506 2555,-405.6506 2254,-405.6506"/>
<polygon fill="none" stroke="#000000" points="2254,-405.6506 2254,-426.6506 2555,-426.6506 2555,-405.6506 2254,-405.6506"/>
<text text-anchor="start" x="2324" y="-412.4506" font-family="Times,serif" font-size="14.00" fill="#000000">VirusScannerInterface</text>
<polygon fill="none" stroke="#000000" points="2251,-354.6506 2251,-402.6506 2558,-402.6506 2558,-354.6506 2251,-354.6506"/>
<polygon fill="#ff0000" stroke="transparent" points="2254,-357.6506 2254,-399.6506 2555,-399.6506 2555,-357.6506 2254,-357.6506"/>
<polygon fill="none" stroke="#000000" points="2254,-378.6506 2254,-399.6506 2555,-399.6506 2555,-378.6506 2254,-378.6506"/>
<text text-anchor="start" x="2257" y="-385.4506" font-family="Times,serif" font-size="14.00" fill="#000000">MessageAnalyser_LoadBalancerInterface</text>
<polygon fill="none" stroke="#000000" points="2254,-357.6506 2254,-378.6506 2555,-378.6506 2555,-357.6506 2254,-357.6506"/>
<text text-anchor="start" x="2266.5" y="-364.4506" font-family="Times,serif" font-size="14.00" fill="#000000">ImageAnalyser_LoadBalancerInterface</text>
</g>
<!-- comp_9&#45;&gt;comp_21 -->
<g id="edge13" class="edge">
<title>comp_9:prov_ImageAnalyser_LoadBalancerInterface&#45;&gt;comp_21:req_ImageAnalyser_LoadBalancerInterface</title>
<path fill="none" stroke="#000000" d="M1893,-394.6506C1893,-394.6506 2186,-433.1506 2186,-433.1506 2221.4204,-418.866 2213.9338,-376.3247 2243.9405,-368.7958"/>
<polygon fill="#000000" stroke="#000000" points="2244.4601,-372.2594 2254,-367.6506 2243.6683,-365.3043 2244.4601,-372.2594"/>
</g>
<!-- comp_24 -->
<g id="node6" class="node">
<title>comp_24</title>
<polygon fill="none" stroke="#000000" points="131,-112.6506 16,-112.6506 16,-56.6506 131,-56.6506 131,-112.6506"/>
<polygon fill="none" stroke="#000000" points="24.5,-87.6506 24.5,-108.6506 123.5,-108.6506 123.5,-87.6506 24.5,-87.6506"/>
<text text-anchor="start" x="27.5" y="-94.4506" font-family="Times,serif" font-size="14.00" fill="#000000">default___DB</text>
<polygon fill="none" stroke="#000000" points="24.5,-60.6506 24.5,-87.6506 123.5,-87.6506 123.5,-60.6506 24.5,-60.6506"/>
<polygon fill="#00ff00" stroke="transparent" points="27.5,-63.6506 27.5,-84.6506 120.5,-84.6506 120.5,-63.6506 27.5,-63.6506"/>
<polygon fill="none" stroke="#000000" points="27.5,-63.6506 27.5,-84.6506 120.5,-84.6506 120.5,-63.6506 27.5,-63.6506"/>
<text text-anchor="start" x="30.5" y="-70.4506" font-family="Times,serif" font-size="14.00" fill="#000000">DBInterface</text>
</g>
<!-- comp_24&#45;&gt;comp_19 -->
<g id="edge29" class="edge">
<title>comp_24:prov_DBInterface&#45;&gt;comp_19:req_DBInterface</title>
<path fill="none" stroke="#000000" d="M74.5,-63.6506C74.5,-38.5395 108.133,-53.2743 131,-63.6506 159.1965,-76.4453 151.6046,-112.1531 173.8685,-120.0789"/>
<polygon fill="#000000" stroke="#000000" points="173.5816,-123.5762 184,-121.6506 174.6548,-116.6589 173.5816,-123.5762"/>
</g>
<!-- comp_24&#45;&gt;comp_2 -->
<g id="edge28" class="edge">
<title>comp_24:prov_DBInterface&#45;&gt;comp_2:req_DBInterface</title>
<path fill="none" stroke="#000000" d="M74.5,-63.6506C74.5,9.3553 260.5595,-2.6506 594.5,-2.6506 594.5,-2.6506 594.5,-2.6506 1669.5,-2.6506 1909.3832,-2.6506 1970.5964,7.9518 2209,-18.6506 2859.7352,-91.2632 3143.0431,107.5516 3655,-300.6506 3685.3131,-324.8203 3657.5793,-377.4559 3683.9536,-387.1126"/>
<polygon fill="#000000" stroke="#000000" points="3683.5855,-390.5969 3694,-388.6506 3684.6448,-383.6776 3683.5855,-390.5969"/>
</g>
<!-- comp_13 -->
<g id="node7" class="node">
<title>comp_13</title>
<polygon fill="none" stroke="#000000" points="1472,-534.1506 1151,-534.1506 1151,-451.1506 1472,-451.1506 1472,-534.1506"/>
<polygon fill="none" stroke="#000000" points="1159.5,-508.6506 1159.5,-529.6506 1464.5,-529.6506 1464.5,-508.6506 1159.5,-508.6506"/>
<text text-anchor="start" x="1162.5" y="-515.4506" font-family="Times,serif" font-size="14.00" fill="#000000">default___ImageRecognizer_LoadBalancer</text>
<polygon fill="none" stroke="#000000" points="1159.5,-481.6506 1159.5,-508.6506 1464.5,-508.6506 1464.5,-481.6506 1159.5,-481.6506"/>
<polygon fill="#00ff00" stroke="transparent" points="1162.5,-484.6506 1162.5,-505.6506 1461.5,-505.6506 1461.5,-484.6506 1162.5,-484.6506"/>
<polygon fill="none" stroke="#000000" points="1162.5,-484.6506 1162.5,-505.6506 1461.5,-505.6506 1461.5,-484.6506 1162.5,-484.6506"/>
<text text-anchor="start" x="1165.5" y="-491.4506" font-family="Times,serif" font-size="14.00" fill="#000000">ImageRecognizer_LoadBalancerInterface</text>
<polygon fill="none" stroke="#000000" points="1159.5,-454.6506 1159.5,-481.6506 1464.5,-481.6506 1464.5,-454.6506 1159.5,-454.6506"/>
<polygon fill="#ff0000" stroke="transparent" points="1162.5,-457.6506 1162.5,-478.6506 1461.5,-478.6506 1461.5,-457.6506 1162.5,-457.6506"/>
<polygon fill="none" stroke="#000000" points="1162.5,-457.6506 1162.5,-478.6506 1461.5,-478.6506 1461.5,-457.6506 1162.5,-457.6506"/>
<text text-anchor="start" x="1217.5" y="-464.4506" font-family="Times,serif" font-size="14.00" fill="#000000">ImageRecognizerInterface</text>
</g>
<!-- comp_17 -->
<g id="node9" class="node">
<title>comp_17</title>
<polygon fill="none" stroke="#000000" points="1831,-432.1506 1508,-432.1506 1508,-307.1506 1831,-307.1506 1831,-432.1506"/>
<polygon fill="none" stroke="#000000" points="1516.5,-406.6506 1516.5,-427.6506 1823.5,-427.6506 1823.5,-406.6506 1516.5,-406.6506"/>
<text text-anchor="start" x="1581" y="-413.4506" font-family="Times,serif" font-size="14.00" fill="#000000">default___ImageAnalyser</text>
<polygon fill="none" stroke="#000000" points="1516.5,-379.6506 1516.5,-406.6506 1823.5,-406.6506 1823.5,-379.6506 1516.5,-379.6506"/>
<polygon fill="#00ff00" stroke="transparent" points="1519.5,-382.6506 1519.5,-403.6506 1820.5,-403.6506 1820.5,-382.6506 1519.5,-382.6506"/>
<polygon fill="none" stroke="#000000" points="1519.5,-382.6506 1519.5,-403.6506 1820.5,-403.6506 1820.5,-382.6506 1519.5,-382.6506"/>
<text text-anchor="start" x="1584" y="-389.4506" font-family="Times,serif" font-size="14.00" fill="#000000">ImageAnalyserInterface</text>
<polygon fill="none" stroke="#000000" points="1516.5,-310.6506 1516.5,-379.6506 1823.5,-379.6506 1823.5,-310.6506 1516.5,-310.6506"/>
<polygon fill="#ff0000" stroke="transparent" points="1519.5,-313.6506 1519.5,-376.6506 1820.5,-376.6506 1820.5,-313.6506 1519.5,-313.6506"/>
<polygon fill="none" stroke="#000000" points="1519.5,-355.6506 1519.5,-376.6506 1820.5,-376.6506 1820.5,-355.6506 1519.5,-355.6506"/>
<text text-anchor="start" x="1522.5" y="-362.4506" font-family="Times,serif" font-size="14.00" fill="#000000">MessageAnalyser_LoadBalancerInterface</text>
<polygon fill="none" stroke="#000000" points="1519.5,-334.6506 1519.5,-355.6506 1820.5,-355.6506 1820.5,-334.6506 1519.5,-334.6506"/>
<text text-anchor="start" x="1531.5" y="-341.4506" font-family="Times,serif" font-size="14.00" fill="#000000">NSFWDetector_LoadBalancerInterface</text>
<polygon fill="none" stroke="#000000" points="1519.5,-313.6506 1519.5,-334.6506 1820.5,-334.6506 1820.5,-313.6506 1519.5,-313.6506"/>
<text text-anchor="start" x="1523.5" y="-320.4506" font-family="Times,serif" font-size="14.00" fill="#000000">ImageRecognizer_LoadBalancerInterface</text>
</g>
<!-- comp_13&#45;&gt;comp_17 -->
<g id="edge17" class="edge">
<title>comp_13:prov_ImageRecognizer_LoadBalancerInterface&#45;&gt;comp_17:req_ImageRecognizer_LoadBalancerInterface</title>
<path fill="none" stroke="#000000" d="M1162.5,-495.6506C1162.5,-495.6506 1472,-534.1506 1472,-534.1506 1543.9839,-476.6002 1432.9239,-335.2786 1509.2394,-324.3257"/>
<polygon fill="#000000" stroke="#000000" points="1509.7514,-327.7996 1519.5,-323.6506 1509.2918,-320.8147 1509.7514,-327.7996"/>
</g>
<!-- comp_16 -->
<g id="node8" class="node">
<title>comp_16</title>
<polygon fill="none" stroke="#000000" points="1778,-506.6506 1561,-506.6506 1561,-450.6506 1778,-450.6506 1778,-506.6506"/>
<polygon fill="none" stroke="#000000" points="1569.5,-481.6506 1569.5,-502.6506 1770.5,-502.6506 1770.5,-481.6506 1569.5,-481.6506"/>
<text text-anchor="start" x="1572.5" y="-488.4506" font-family="Times,serif" font-size="14.00" fill="#000000">default___ImageRecognizer</text>
<polygon fill="none" stroke="#000000" points="1569.5,-454.6506 1569.5,-481.6506 1770.5,-481.6506 1770.5,-454.6506 1569.5,-454.6506"/>
<polygon fill="#00ff00" stroke="transparent" points="1572.5,-457.6506 1572.5,-478.6506 1767.5,-478.6506 1767.5,-457.6506 1572.5,-457.6506"/>
<polygon fill="none" stroke="#000000" points="1572.5,-457.6506 1572.5,-478.6506 1767.5,-478.6506 1767.5,-457.6506 1572.5,-457.6506"/>
<text text-anchor="start" x="1575.5" y="-464.4506" font-family="Times,serif" font-size="14.00" fill="#000000">ImageRecognizerInterface</text>
</g>
<!-- comp_16&#45;&gt;comp_13 -->
<g id="edge20" class="edge">
<title>comp_16:prov_ImageRecognizerInterface&#45;&gt;comp_13:req_ImageRecognizerInterface</title>
<path fill="none" stroke="#000000" d="M1572.5,-467.6506C1546.6389,-467.6506 1358.9965,-436.5152 1319.7034,-450.6412"/>
<polygon fill="#000000" stroke="#000000" points="1317.2261,-448.1682 1312.5,-457.6506 1322.1078,-453.1851 1317.2261,-448.1682"/>
</g>
<!-- comp_17&#45;&gt;comp_9 -->
<g id="edge21" class="edge">
<title>comp_17:prov_ImageAnalyserInterface&#45;&gt;comp_9:req_ImageAnalyserInterface</title>
<path fill="none" stroke="#000000" d="M1519.5,-393.6506C1519.5,-393.6506 1831,-432.1506 1831,-432.1506 1864.2236,-417.8517 1855.3331,-376.0262 1882.7303,-367.9935"/>
<polygon fill="#000000" stroke="#000000" points="1883.5382,-371.4177 1893,-366.6506 1882.6306,-364.4768 1883.5382,-371.4177"/>
</g>
<!-- comp_3 -->
<g id="node10" class="node">
<title>comp_3</title>
<polygon fill="none" stroke="#000000" points="1456.5,-242.1506 1166.5,-242.1506 1166.5,-159.1506 1456.5,-159.1506 1456.5,-242.1506"/>
<polygon fill="none" stroke="#000000" points="1174.5,-216.6506 1174.5,-237.6506 1448.5,-237.6506 1448.5,-216.6506 1174.5,-216.6506"/>
<text text-anchor="start" x="1177.5" y="-223.4506" font-family="Times,serif" font-size="14.00" fill="#000000">default___LinkAnalyser_LoadBalancer</text>
<polygon fill="none" stroke="#000000" points="1174.5,-189.6506 1174.5,-216.6506 1448.5,-216.6506 1448.5,-189.6506 1174.5,-189.6506"/>
<polygon fill="#00ff00" stroke="transparent" points="1177.5,-192.6506 1177.5,-213.6506 1445.5,-213.6506 1445.5,-192.6506 1177.5,-192.6506"/>
<polygon fill="none" stroke="#000000" points="1177.5,-192.6506 1177.5,-213.6506 1445.5,-213.6506 1445.5,-192.6506 1177.5,-192.6506"/>
<text text-anchor="start" x="1180.5" y="-199.4506" font-family="Times,serif" font-size="14.00" fill="#000000">LinkAnalyser_LoadBalancerInterface</text>
<polygon fill="none" stroke="#000000" points="1174.5,-162.6506 1174.5,-189.6506 1448.5,-189.6506 1448.5,-162.6506 1174.5,-162.6506"/>
<polygon fill="#ff0000" stroke="transparent" points="1177.5,-165.6506 1177.5,-186.6506 1445.5,-186.6506 1445.5,-165.6506 1177.5,-165.6506"/>
<polygon fill="none" stroke="#000000" points="1177.5,-165.6506 1177.5,-186.6506 1445.5,-186.6506 1445.5,-165.6506 1177.5,-165.6506"/>
<text text-anchor="start" x="1232.5" y="-172.4506" font-family="Times,serif" font-size="14.00" fill="#000000">LinkAnalyserInterface</text>
</g>
<!-- comp_3&#45;&gt;comp_2 -->
<g id="edge2" class="edge">
<title>comp_3:prov_LinkAnalyser_LoadBalancerInterface&#45;&gt;comp_2:req_LinkAnalyser_LoadBalancerInterface</title>
<path fill="none" stroke="#000000" d="M1177.5,-203.6506C1177.5,-203.6506 1456.5,-242.1506 1456.5,-242.1506 2033.161,-232.6355 2176.7605,-200.6506 2753.5,-200.6506 2753.5,-200.6506 2753.5,-200.6506 3097.5,-200.6506 3361.707,-200.6506 3424.8062,-280.5818 3683.9069,-282.6113"/>
<polygon fill="#000000" stroke="#000000" points="3683.9864,-286.1115 3694,-282.6506 3684.0137,-279.1116 3683.9864,-286.1115"/>
</g>
<!-- comp_8&#45;&gt;comp_2 -->
<g id="edge7" class="edge">
<title>comp_8:prov_MessageAnalyser_LoadBalancerInterface&#45;&gt;comp_2:req_MessageAnalyser_LoadBalancerInterface</title>
<path fill="none" stroke="#000000" d="M444.5,-422.6506C427.3889,-422.6506 435.3269,-446.706 444.5,-461.1506 533.872,-601.882 622.7828,-578.2042 784,-620.6506 1011.3689,-680.5138 1076.3825,-660.6506 1311.5,-660.6506 1311.5,-660.6506 1311.5,-660.6506 3097.5,-660.6506 3348.0087,-660.6506 3478.7024,-755.6219 3655,-577.6506 3689.0611,-543.2661 3648.675,-373.7062 3683.9738,-348.7266"/>
<polygon fill="#000000" stroke="#000000" points="3685.4664,-351.9297 3694,-345.6506 3683.4132,-345.2376 3685.4664,-351.9297"/>
</g>
<!-- comp_8&#45;&gt;comp_17 -->
<g id="edge9" class="edge">
<title>comp_8:prov_MessageAnalyser_LoadBalancerInterface&#45;&gt;comp_17:req_MessageAnalyser_LoadBalancerInterface</title>
<path fill="none" stroke="#000000" d="M444.5,-422.6506C444.5,-422.6506 756,-461.1506 756,-461.1506 776.1507,-460.421 1461.8443,-417.4229 1480,-408.6506 1499.7151,-399.1249 1495.807,-375.0615 1509.6923,-367.7743"/>
<polygon fill="#000000" stroke="#000000" points="1510.4672,-371.1877 1519.5,-365.6506 1508.9858,-364.3462 1510.4672,-371.1877"/>
</g>
<!-- comp_4 -->
<g id="node14" class="node">
<title>comp_4</title>
<polygon fill="none" stroke="#000000" points="3259,-611.1506 2936,-611.1506 2936,-528.1506 3259,-528.1506 3259,-611.1506"/>
<polygon fill="none" stroke="#000000" points="2944.5,-585.6506 2944.5,-606.6506 3251.5,-606.6506 3251.5,-585.6506 2944.5,-585.6506"/>
<text text-anchor="start" x="3005" y="-592.4506" font-family="Times,serif" font-size="14.00" fill="#000000">default___HeaderAnalyser</text>
<polygon fill="none" stroke="#000000" points="2944.5,-558.6506 2944.5,-585.6506 3251.5,-585.6506 3251.5,-558.6506 2944.5,-558.6506"/>
<polygon fill="#00ff00" stroke="transparent" points="2947.5,-561.6506 2947.5,-582.6506 3248.5,-582.6506 3248.5,-561.6506 2947.5,-561.6506"/>
<polygon fill="none" stroke="#000000" points="2947.5,-561.6506 2947.5,-582.6506 3248.5,-582.6506 3248.5,-561.6506 2947.5,-561.6506"/>
<text text-anchor="start" x="3008" y="-568.4506" font-family="Times,serif" font-size="14.00" fill="#000000">HeaderAnalyserInterface</text>
<polygon fill="none" stroke="#000000" points="2944.5,-531.6506 2944.5,-558.6506 3251.5,-558.6506 3251.5,-531.6506 2944.5,-531.6506"/>
<polygon fill="#ff0000" stroke="transparent" points="2947.5,-534.6506 2947.5,-555.6506 3248.5,-555.6506 3248.5,-534.6506 2947.5,-534.6506"/>
<polygon fill="none" stroke="#000000" points="2947.5,-534.6506 2947.5,-555.6506 3248.5,-555.6506 3248.5,-534.6506 2947.5,-534.6506"/>
<text text-anchor="start" x="2950.5" y="-541.4506" font-family="Times,serif" font-size="14.00" fill="#000000">MessageAnalyser_LoadBalancerInterface</text>
</g>
<!-- comp_8&#45;&gt;comp_4 -->
<g id="edge8" class="edge">
<title>comp_8:prov_MessageAnalyser_LoadBalancerInterface&#45;&gt;comp_4:req_MessageAnalyser_LoadBalancerInterface</title>
<path fill="none" stroke="#000000" d="M444.5,-422.6506C427.3889,-422.6506 434.7752,-447.0716 444.5,-461.1506 536.1927,-593.8969 626.2498,-555.8275 784,-589.6506 1013.6559,-638.891 1076.6246,-621.6506 1311.5,-621.6506 1311.5,-621.6506 1311.5,-621.6506 2404,-621.6506 2644.5131,-621.6506 2701.9209,-546.8158 2937.2484,-544.6965"/>
<polygon fill="#000000" stroke="#000000" points="2937.5158,-548.1954 2947.5,-544.6506 2937.4844,-541.1955 2937.5158,-548.1954"/>
</g>
<!-- comp_23 -->
<g id="node18" class="node">
<title>comp_23</title>
<polygon fill="none" stroke="#000000" points="1115,-271.1506 792,-271.1506 792,-188.1506 1115,-188.1506 1115,-271.1506"/>
<polygon fill="none" stroke="#000000" points="800.5,-245.6506 800.5,-266.6506 1107.5,-266.6506 1107.5,-245.6506 800.5,-245.6506"/>
<text text-anchor="start" x="872" y="-252.4506" font-family="Times,serif" font-size="14.00" fill="#000000">default___LinkAnalyser</text>
<polygon fill="none" stroke="#000000" points="800.5,-218.6506 800.5,-245.6506 1107.5,-245.6506 1107.5,-218.6506 800.5,-218.6506"/>
<polygon fill="#00ff00" stroke="transparent" points="803.5,-221.6506 803.5,-242.6506 1104.5,-242.6506 1104.5,-221.6506 803.5,-221.6506"/>
<polygon fill="none" stroke="#000000" points="803.5,-221.6506 803.5,-242.6506 1104.5,-242.6506 1104.5,-221.6506 803.5,-221.6506"/>
<text text-anchor="start" x="875" y="-228.4506" font-family="Times,serif" font-size="14.00" fill="#000000">LinkAnalyserInterface</text>
<polygon fill="none" stroke="#000000" points="800.5,-191.6506 800.5,-218.6506 1107.5,-218.6506 1107.5,-191.6506 800.5,-191.6506"/>
<polygon fill="#ff0000" stroke="transparent" points="803.5,-194.6506 803.5,-215.6506 1104.5,-215.6506 1104.5,-194.6506 803.5,-194.6506"/>
<polygon fill="none" stroke="#000000" points="803.5,-194.6506 803.5,-215.6506 1104.5,-215.6506 1104.5,-194.6506 803.5,-194.6506"/>
<text text-anchor="start" x="806.5" y="-201.4506" font-family="Times,serif" font-size="14.00" fill="#000000">MessageAnalyser_LoadBalancerInterface</text>
</g>
<!-- comp_8&#45;&gt;comp_23 -->
<g id="edge12" class="edge">
<title>comp_8:prov_MessageAnalyser_LoadBalancerInterface&#45;&gt;comp_23:req_MessageAnalyser_LoadBalancerInterface</title>
<path fill="none" stroke="#000000" d="M444.5,-422.6506C444.5,-422.6506 756,-461.1506 756,-461.1506 797.1829,-425.8636 752.1456,-232.1008 793.6362,-207.2701"/>
<polygon fill="#000000" stroke="#000000" points="794.7334,-210.6001 803.5,-204.6506 792.9366,-203.8347 794.7334,-210.6001"/>
</g>
<!-- comp_20 -->
<g id="node22" class="node">
<title>comp_20</title>
<polygon fill="none" stroke="#000000" points="2571,-332.6506 2237,-332.6506 2237,-228.6506 2571,-228.6506 2571,-332.6506"/>
<polygon fill="none" stroke="#000000" points="2245,-307.6506 2245,-328.6506 2563,-328.6506 2563,-307.6506 2245,-307.6506"/>
<text text-anchor="start" x="2322.5" y="-314.4506" font-family="Times,serif" font-size="14.00" fill="#000000">default___TextAnalyser</text>
<polygon fill="none" stroke="#000000" points="2245,-280.6506 2245,-307.6506 2563,-307.6506 2563,-280.6506 2245,-280.6506"/>
<polygon fill="#00ff00" stroke="transparent" points="2248,-283.6506 2248,-304.6506 2560,-304.6506 2560,-283.6506 2248,-283.6506"/>
<polygon fill="none" stroke="#000000" points="2248,-283.6506 2248,-304.6506 2560,-304.6506 2560,-283.6506 2248,-283.6506"/>
<text text-anchor="start" x="2325.5" y="-290.4506" font-family="Times,serif" font-size="14.00" fill="#000000">TextAnalyserInterface</text>
<polygon fill="none" stroke="#000000" points="2245,-232.6506 2245,-280.6506 2563,-280.6506 2563,-232.6506 2245,-232.6506"/>
<polygon fill="#ff0000" stroke="transparent" points="2248,-235.6506 2248,-277.6506 2560,-277.6506 2560,-235.6506 2248,-235.6506"/>
<polygon fill="none" stroke="#000000" points="2248,-256.6506 2248,-277.6506 2560,-277.6506 2560,-256.6506 2248,-256.6506"/>
<text text-anchor="start" x="2256.5" y="-263.4506" font-family="Times,serif" font-size="14.00" fill="#000000">MessageAnalyser_LoadBalancerInterface</text>
<polygon fill="none" stroke="#000000" points="2248,-235.6506 2248,-256.6506 2560,-256.6506 2560,-235.6506 2248,-235.6506"/>
<text text-anchor="start" x="2251" y="-242.4506" font-family="Times,serif" font-size="14.00" fill="#000000">SentimentAnalyser_LoadBalancerInterface</text>
</g>
<!-- comp_8&#45;&gt;comp_20 -->
<g id="edge10" class="edge">
<title>comp_8:prov_MessageAnalyser_LoadBalancerInterface&#45;&gt;comp_20:req_MessageAnalyser_LoadBalancerInterface</title>
<path fill="none" stroke="#000000" d="M444.5,-422.6506C444.5,-422.6506 756,-461.1506 756,-461.1506 803.2259,-418.3297 738.5378,-220.3395 784,-175.6506 1014.0744,50.5101 1903.5381,-260.1559 2237.7914,-266.5508"/>
<polygon fill="#000000" stroke="#000000" points="2237.9662,-270.0525 2248,-266.6506 2238.0347,-263.0529 2237.9662,-270.0525"/>
</g>
<!-- comp_8&#45;&gt;comp_21 -->
<g id="edge11" class="edge">
<title>comp_8:prov_MessageAnalyser_LoadBalancerInterface&#45;&gt;comp_21:req_MessageAnalyser_LoadBalancerInterface</title>
<path fill="none" stroke="#000000" d="M444.5,-422.6506C427.3889,-422.6506 433.3679,-448.1558 444.5,-461.1506 648.8909,-699.7412 831.0358,-532.5093 1143,-569.6506 1217.6199,-578.5346 1236.3531,-583.6506 1311.5,-583.6506 1311.5,-583.6506 1311.5,-583.6506 1669.5,-583.6506 1914.6647,-583.6506 2011.5103,-613.9212 2209,-468.6506 2238.6525,-446.8387 2218.2157,-399.2525 2243.9135,-390.1664"/>
<polygon fill="#000000" stroke="#000000" points="2244.6312,-393.5979 2254,-388.6506 2243.5909,-386.6756 2244.6312,-393.5979"/>
</g>
<!-- comp_15 -->
<g id="node12" class="node">
<title>comp_15</title>
<polygon fill="none" stroke="#000000" points="2900,-483.1506 2607,-483.1506 2607,-400.1506 2900,-400.1506 2900,-483.1506"/>
<polygon fill="none" stroke="#000000" points="2615.5,-457.6506 2615.5,-478.6506 2892.5,-478.6506 2892.5,-457.6506 2615.5,-457.6506"/>
<text text-anchor="start" x="2618.5" y="-464.4506" font-family="Times,serif" font-size="14.00" fill="#000000">default___VirusScanner_LoadBalancer</text>
<polygon fill="none" stroke="#000000" points="2615.5,-430.6506 2615.5,-457.6506 2892.5,-457.6506 2892.5,-430.6506 2615.5,-430.6506"/>
<polygon fill="#00ff00" stroke="transparent" points="2618.5,-433.6506 2618.5,-454.6506 2889.5,-454.6506 2889.5,-433.6506 2618.5,-433.6506"/>
<polygon fill="none" stroke="#000000" points="2618.5,-433.6506 2618.5,-454.6506 2889.5,-454.6506 2889.5,-433.6506 2618.5,-433.6506"/>
<text text-anchor="start" x="2621.5" y="-440.4506" font-family="Times,serif" font-size="14.00" fill="#000000">VirusScanner_LoadBalancerInterface</text>
<polygon fill="none" stroke="#000000" points="2615.5,-403.6506 2615.5,-430.6506 2892.5,-430.6506 2892.5,-403.6506 2615.5,-403.6506"/>
<polygon fill="#ff0000" stroke="transparent" points="2618.5,-406.6506 2618.5,-427.6506 2889.5,-427.6506 2889.5,-406.6506 2618.5,-406.6506"/>
<polygon fill="none" stroke="#000000" points="2618.5,-406.6506 2618.5,-427.6506 2889.5,-427.6506 2889.5,-406.6506 2618.5,-406.6506"/>
<text text-anchor="start" x="2673.5" y="-413.4506" font-family="Times,serif" font-size="14.00" fill="#000000">VirusScannerInterface</text>
</g>
<!-- comp_5 -->
<g id="node15" class="node">
<title>comp_5</title>
<polygon fill="none" stroke="#000000" points="3244,-510.1506 2951,-510.1506 2951,-427.1506 3244,-427.1506 3244,-510.1506"/>
<polygon fill="none" stroke="#000000" points="2959.5,-484.6506 2959.5,-505.6506 3236.5,-505.6506 3236.5,-484.6506 2959.5,-484.6506"/>
<text text-anchor="start" x="2985" y="-491.4506" font-family="Times,serif" font-size="14.00" fill="#000000">default___AttachmentsManager</text>
<polygon fill="none" stroke="#000000" points="2959.5,-457.6506 2959.5,-484.6506 3236.5,-484.6506 3236.5,-457.6506 2959.5,-457.6506"/>
<polygon fill="#00ff00" stroke="transparent" points="2962.5,-460.6506 2962.5,-481.6506 3233.5,-481.6506 3233.5,-460.6506 2962.5,-460.6506"/>
<polygon fill="none" stroke="#000000" points="2962.5,-460.6506 2962.5,-481.6506 3233.5,-481.6506 3233.5,-460.6506 2962.5,-460.6506"/>
<text text-anchor="start" x="2988" y="-467.4506" font-family="Times,serif" font-size="14.00" fill="#000000">AttachmentsManagerInterface</text>
<polygon fill="none" stroke="#000000" points="2959.5,-430.6506 2959.5,-457.6506 3236.5,-457.6506 3236.5,-430.6506 2959.5,-430.6506"/>
<polygon fill="#ff0000" stroke="transparent" points="2962.5,-433.6506 2962.5,-454.6506 3233.5,-454.6506 3233.5,-433.6506 2962.5,-433.6506"/>
<polygon fill="none" stroke="#000000" points="2962.5,-433.6506 2962.5,-454.6506 3233.5,-454.6506 3233.5,-433.6506 2962.5,-433.6506"/>
<text text-anchor="start" x="2965.5" y="-440.4506" font-family="Times,serif" font-size="14.00" fill="#000000">VirusScanner_LoadBalancerInterface</text>
</g>
<!-- comp_15&#45;&gt;comp_5 -->
<g id="edge19" class="edge">
<title>comp_15:prov_VirusScanner_LoadBalancerInterface&#45;&gt;comp_5:req_VirusScanner_LoadBalancerInterface</title>
<path fill="none" stroke="#000000" d="M2618.5,-444.6506C2618.5,-444.6506 2900,-483.1506 2900,-483.1506 2927.8652,-475.0832 2929.6308,-450.4752 2952.2708,-444.8184"/>
<polygon fill="#000000" stroke="#000000" points="2952.9616,-448.2624 2962.5,-443.6506 2952.1675,-441.3076 2952.9616,-448.2624"/>
</g>
<!-- comp_1 -->
<g id="node24" class="node">
<title>comp_1</title>
<polygon fill="none" stroke="#000000" points="4723,-482.6506 4415,-482.6506 4415,-426.6506 4723,-426.6506 4723,-482.6506"/>
<polygon fill="none" stroke="#000000" points="4423,-457.6506 4423,-478.6506 4715,-478.6506 4715,-457.6506 4423,-457.6506"/>
<text text-anchor="start" x="4471" y="-464.4506" font-family="Times,serif" font-size="14.00" fill="#000000">default___MessageReceiver</text>
<polygon fill="none" stroke="#000000" points="4423,-430.6506 4423,-457.6506 4715,-457.6506 4715,-430.6506 4423,-430.6506"/>
<polygon fill="#ff0000" stroke="transparent" points="4426,-433.6506 4426,-454.6506 4712,-454.6506 4712,-433.6506 4426,-433.6506"/>
<polygon fill="none" stroke="#000000" points="4426,-433.6506 4426,-454.6506 4712,-454.6506 4712,-433.6506 4426,-433.6506"/>
<text text-anchor="start" x="4429" y="-440.4506" font-family="Times,serif" font-size="14.00" fill="#000000">MessageParser_LoadBalancerInterface</text>
</g>
<!-- comp_12&#45;&gt;comp_1 -->
<g id="edge16" class="edge">
<title>comp_12:prov_MessageParser_LoadBalancerInterface&#45;&gt;comp_1:req_MessageParser_LoadBalancerInterface</title>
<path fill="none" stroke="#000000" d="M4082,-443.6506C4082,-443.6506 4379,-482.1506 4379,-482.1506 4400.6537,-474.4139 4399.9298,-451.9352 4415.9123,-445.4322"/>
<polygon fill="#000000" stroke="#000000" points="4416.7612,-448.8366 4426,-443.6506 4415.5436,-441.9433 4416.7612,-448.8366"/>
</g>
<!-- comp_4&#45;&gt;comp_10 -->
<g id="edge3" class="edge">
<title>comp_4:prov_HeaderAnalyserInterface&#45;&gt;comp_10:req_HeaderAnalyserInterface</title>
<path fill="none" stroke="#000000" d="M2947.5,-572.6506C2947.5,-572.6506 3259,-611.1506 3259,-611.1506 3287.3351,-587.231 3277.2201,-482.419 3287,-446.6506 3298.8004,-403.4924 3280.7413,-353.2221 3315.8719,-345.6307"/>
<polygon fill="#000000" stroke="#000000" points="3316.3837,-349.0977 3326,-344.6506 3315.7093,-342.1302 3316.3837,-349.0977"/>
</g>
<!-- comp_11 -->
<g id="node19" class="node">
<title>comp_11</title>
<polygon fill="none" stroke="#000000" points="3647,-542.1506 3295,-542.1506 3295,-459.1506 3647,-459.1506 3647,-542.1506"/>
<polygon fill="none" stroke="#000000" points="3303,-516.6506 3303,-537.6506 3639,-537.6506 3639,-516.6506 3303,-516.6506"/>
<text text-anchor="start" x="3306" y="-523.4506" font-family="Times,serif" font-size="14.00" fill="#000000">default___AttachmentsManager_LoadBalancer</text>
<polygon fill="none" stroke="#000000" points="3303,-489.6506 3303,-516.6506 3639,-516.6506 3639,-489.6506 3303,-489.6506"/>
<polygon fill="#00ff00" stroke="transparent" points="3306,-492.6506 3306,-513.6506 3636,-513.6506 3636,-492.6506 3306,-492.6506"/>
<polygon fill="none" stroke="#000000" points="3306,-492.6506 3306,-513.6506 3636,-513.6506 3636,-492.6506 3306,-492.6506"/>
<text text-anchor="start" x="3309" y="-499.4506" font-family="Times,serif" font-size="14.00" fill="#000000">AttachmentsManager_LoadBalancerInterface</text>
<polygon fill="none" stroke="#000000" points="3303,-462.6506 3303,-489.6506 3639,-489.6506 3639,-462.6506 3303,-462.6506"/>
<polygon fill="#ff0000" stroke="transparent" points="3306,-465.6506 3306,-486.6506 3636,-486.6506 3636,-465.6506 3306,-465.6506"/>
<polygon fill="none" stroke="#000000" points="3306,-465.6506 3306,-486.6506 3636,-486.6506 3636,-465.6506 3306,-465.6506"/>
<text text-anchor="start" x="3361" y="-472.4506" font-family="Times,serif" font-size="14.00" fill="#000000">AttachmentsManagerInterface</text>
</g>
<!-- comp_5&#45;&gt;comp_11 -->
<g id="edge4" class="edge">
<title>comp_5:prov_AttachmentsManagerInterface&#45;&gt;comp_11:req_AttachmentsManagerInterface</title>
<path fill="none" stroke="#000000" d="M2962.5,-471.6506C2945.3889,-471.6506 2950.4006,-498.0512 2962.5,-510.1506 2973.5584,-521.209 3228.8625,-514.0787 3244,-510.1506 3270.8273,-503.1891 3274.0312,-481.8142 3295.8235,-476.7395"/>
<polygon fill="#000000" stroke="#000000" points="3296.4292,-480.1948 3306,-475.6506 3295.6843,-473.2345 3296.4292,-480.1948"/>
</g>
<!-- comp_7 -->
<g id="node16" class="node">
<title>comp_7</title>
<polygon fill="none" stroke="#000000" points="1464,-373.1506 1159,-373.1506 1159,-290.1506 1464,-290.1506 1464,-373.1506"/>
<polygon fill="none" stroke="#000000" points="1167.5,-347.6506 1167.5,-368.6506 1456.5,-368.6506 1456.5,-347.6506 1167.5,-347.6506"/>
<text text-anchor="start" x="1170.5" y="-354.4506" font-family="Times,serif" font-size="14.00" fill="#000000">default___NSFWDetector_LoadBalancer</text>
<polygon fill="none" stroke="#000000" points="1167.5,-320.6506 1167.5,-347.6506 1456.5,-347.6506 1456.5,-320.6506 1167.5,-320.6506"/>
<polygon fill="#00ff00" stroke="transparent" points="1170.5,-323.6506 1170.5,-344.6506 1453.5,-344.6506 1453.5,-323.6506 1170.5,-323.6506"/>
<polygon fill="none" stroke="#000000" points="1170.5,-323.6506 1170.5,-344.6506 1453.5,-344.6506 1453.5,-323.6506 1170.5,-323.6506"/>
<text text-anchor="start" x="1173.5" y="-330.4506" font-family="Times,serif" font-size="14.00" fill="#000000">NSFWDetector_LoadBalancerInterface</text>
<polygon fill="none" stroke="#000000" points="1167.5,-293.6506 1167.5,-320.6506 1456.5,-320.6506 1456.5,-293.6506 1167.5,-293.6506"/>
<polygon fill="#ff0000" stroke="transparent" points="1170.5,-296.6506 1170.5,-317.6506 1453.5,-317.6506 1453.5,-296.6506 1170.5,-296.6506"/>
<polygon fill="none" stroke="#000000" points="1170.5,-296.6506 1170.5,-317.6506 1453.5,-317.6506 1453.5,-296.6506 1170.5,-296.6506"/>
<text text-anchor="start" x="1225.5" y="-303.4506" font-family="Times,serif" font-size="14.00" fill="#000000">NSFWDetectorInterface</text>
</g>
<!-- comp_7&#45;&gt;comp_17 -->
<g id="edge6" class="edge">
<title>comp_7:prov_NSFWDetector_LoadBalancerInterface&#45;&gt;comp_17:req_NSFWDetector_LoadBalancerInterface</title>
<path fill="none" stroke="#000000" d="M1170.5,-334.6506C1153.3889,-334.6506 1158.4006,-361.0512 1170.5,-373.1506 1216.6191,-419.2697 1400.604,-388.4766 1464,-373.1506 1487.2675,-367.5256 1491.0588,-350.3728 1509.5003,-345.7877"/>
<polygon fill="#000000" stroke="#000000" points="1509.9595,-349.2581 1519.5,-344.6506 1509.1686,-342.3029 1509.9595,-349.2581"/>
</g>
<!-- comp_22 -->
<g id="node17" class="node">
<title>comp_22</title>
<polygon fill="none" stroke="#000000" points="1054,-345.6506 853,-345.6506 853,-289.6506 1054,-289.6506 1054,-345.6506"/>
<polygon fill="none" stroke="#000000" points="861.5,-320.6506 861.5,-341.6506 1046.5,-341.6506 1046.5,-320.6506 861.5,-320.6506"/>
<text text-anchor="start" x="864.5" y="-327.4506" font-family="Times,serif" font-size="14.00" fill="#000000">default___NSFWDetector</text>
<polygon fill="none" stroke="#000000" points="861.5,-293.6506 861.5,-320.6506 1046.5,-320.6506 1046.5,-293.6506 861.5,-293.6506"/>
<polygon fill="#00ff00" stroke="transparent" points="864.5,-296.6506 864.5,-317.6506 1043.5,-317.6506 1043.5,-296.6506 864.5,-296.6506"/>
<polygon fill="none" stroke="#000000" points="864.5,-296.6506 864.5,-317.6506 1043.5,-317.6506 1043.5,-296.6506 864.5,-296.6506"/>
<text text-anchor="start" x="867.5" y="-303.4506" font-family="Times,serif" font-size="14.00" fill="#000000">NSFWDetectorInterface</text>
</g>
<!-- comp_22&#45;&gt;comp_7 -->
<g id="edge26" class="edge">
<title>comp_22:prov_NSFWDetectorInterface&#45;&gt;comp_7:req_NSFWDetectorInterface</title>
<path fill="none" stroke="#000000" d="M954.5,-296.6506C954.5,-283.5371 1115.3582,-302.1452 1160.2381,-305.9824"/>
<polygon fill="#000000" stroke="#000000" points="1160.2937,-309.4933 1170.5,-306.6506 1160.7486,-302.5081 1160.2937,-309.4933"/>
</g>
<!-- comp_23&#45;&gt;comp_3 -->
<g id="edge27" class="edge">
<title>comp_23:prov_LinkAnalyserInterface&#45;&gt;comp_3:req_LinkAnalyserInterface</title>
<path fill="none" stroke="#000000" d="M803.5,-232.6506C803.5,-232.6506 1115,-271.1506 1115,-271.1506 1156.3099,-248.8157 1131.223,-185.985 1167.5208,-176.7816"/>
<polygon fill="#000000" stroke="#000000" points="1167.9578,-180.2546 1177.5,-175.6506 1167.1694,-173.2991 1167.9578,-180.2546"/>
</g>
<!-- comp_11&#45;&gt;comp_2 -->
<g id="edge15" class="edge">
<title>comp_11:prov_AttachmentsManager_LoadBalancerInterface&#45;&gt;comp_2:req_AttachmentsManager_LoadBalancerInterface</title>
<path fill="none" stroke="#000000" d="M3306,-503.6506C3306,-503.6506 3647,-542.1506 3647,-542.1506 3682.6255,-513.4012 3650.1893,-351.4702 3684.414,-327.5919"/>
<polygon fill="#000000" stroke="#000000" points="3685.4666,-330.9301 3694,-324.6506 3683.4132,-324.238 3685.4666,-330.9301"/>
</g>
<!-- comp_14 -->
<g id="node20" class="node">
<title>comp_14</title>
<polygon fill="none" stroke="#000000" points="2898.5,-341.1506 2608.5,-341.1506 2608.5,-258.1506 2898.5,-258.1506 2898.5,-341.1506"/>
<polygon fill="none" stroke="#000000" points="2616.5,-315.6506 2616.5,-336.6506 2890.5,-336.6506 2890.5,-315.6506 2616.5,-315.6506"/>
<text text-anchor="start" x="2619.5" y="-322.4506" font-family="Times,serif" font-size="14.00" fill="#000000">default___TextAnalyser_LoadBalancer</text>
<polygon fill="none" stroke="#000000" points="2616.5,-288.6506 2616.5,-315.6506 2890.5,-315.6506 2890.5,-288.6506 2616.5,-288.6506"/>
<polygon fill="#00ff00" stroke="transparent" points="2619.5,-291.6506 2619.5,-312.6506 2887.5,-312.6506 2887.5,-291.6506 2619.5,-291.6506"/>
<polygon fill="none" stroke="#000000" points="2619.5,-291.6506 2619.5,-312.6506 2887.5,-312.6506 2887.5,-291.6506 2619.5,-291.6506"/>
<text text-anchor="start" x="2622.5" y="-298.4506" font-family="Times,serif" font-size="14.00" fill="#000000">TextAnalyser_LoadBalancerInterface</text>
<polygon fill="none" stroke="#000000" points="2616.5,-261.6506 2616.5,-288.6506 2890.5,-288.6506 2890.5,-261.6506 2616.5,-261.6506"/>
<polygon fill="#ff0000" stroke="transparent" points="2619.5,-264.6506 2619.5,-285.6506 2887.5,-285.6506 2887.5,-264.6506 2619.5,-264.6506"/>
<polygon fill="none" stroke="#000000" points="2619.5,-264.6506 2619.5,-285.6506 2887.5,-285.6506 2887.5,-264.6506 2619.5,-264.6506"/>
<text text-anchor="start" x="2675" y="-271.4506" font-family="Times,serif" font-size="14.00" fill="#000000">TextAnalyserInterface</text>
</g>
<!-- comp_14&#45;&gt;comp_2 -->
<g id="edge18" class="edge">
<title>comp_14:prov_TextAnalyser_LoadBalancerInterface&#45;&gt;comp_2:req_TextAnalyser_LoadBalancerInterface</title>
<path fill="none" stroke="#000000" d="M2619.5,-302.6506C2619.5,-302.6506 2898.5,-341.1506 2898.5,-341.1506 3071.4453,-335.4809 3114.157,-323.8684 3287,-315.6506 3464.321,-307.2199 3511.2592,-303.7822 3683.8073,-303.6543"/>
<polygon fill="#000000" stroke="#000000" points="3684.0013,-307.1543 3694,-303.6506 3683.9987,-300.1543 3684.0013,-307.1543"/>
</g>
<!-- comp_6&#45;&gt;comp_20 -->
<g id="edge5" class="edge">
<title>comp_6:prov_SentimentAnalyser_LoadBalancerInterface&#45;&gt;comp_20:req_SentimentAnalyser_LoadBalancerInterface</title>
<path fill="none" stroke="#000000" d="M1878,-75.6506C1860.8889,-75.6506 1866.5639,-101.4224 1878,-114.1506 1927.4422,-169.179 2149.9238,-105.1236 2209,-149.6506 2242.6162,-174.9878 2208.8848,-234.2144 2238.0102,-244.2069"/>
<polygon fill="#000000" stroke="#000000" points="2237.6022,-247.6842 2248,-245.6506 2238.6035,-240.7562 2237.6022,-247.6842"/>
</g>
<!-- comp_20&#45;&gt;comp_14 -->
<g id="edge24" class="edge">
<title>comp_20:prov_TextAnalyserInterface&#45;&gt;comp_14:req_TextAnalyserInterface</title>
<path fill="none" stroke="#000000" d="M2248,-294.6506C2248,-294.6506 2571,-332.6506 2571,-332.6506 2597.8748,-320.0909 2588.9092,-284.5042 2609.5583,-276.336"/>
<polygon fill="#000000" stroke="#000000" points="2610.2257,-279.7729 2619.5,-274.6506 2609.0556,-272.8713 2610.2257,-279.7729"/>
</g>
<!-- comp_21&#45;&gt;comp_15 -->
<g id="edge25" class="edge">
<title>comp_21:prov_VirusScannerInterface&#45;&gt;comp_15:req_VirusScannerInterface</title>
<path fill="none" stroke="#000000" d="M2254,-416.6506C2254,-416.6506 2565.5,-454.6506 2565.5,-454.6506 2589.4291,-446.9586 2589.9162,-424.0309 2608.5253,-418.0764"/>
<polygon fill="#000000" stroke="#000000" points="2609.0959,-421.5305 2618.5,-416.6506 2608.1053,-414.6009 2609.0959,-421.5305"/>
</g>
</g>
</svg>
